<mxfile host="app.diagrams.net" modified="2023-12-05T12:09:25.655Z" agent="Mozilla/5.0 (Windows NT 10.0; Win64; x64) AppleWebKit/537.36 (KHTML, like Gecko) Chrome/119.0.0.0 Safari/537.36" etag="0SB9qkw_7JUIjg-JEp8u" version="22.1.5" type="device">
  <diagram name="Page-1" id="03018318-947c-dd8e-b7a3-06fadd420f32">
    <mxGraphModel dx="2100" dy="1130" grid="1" gridSize="10" guides="1" tooltips="1" connect="1" arrows="1" fold="1" page="1" pageScale="1" pageWidth="1100" pageHeight="850" background="none" math="0" shadow="0">
      <root>
        <mxCell id="0" />
        <mxCell id="1" parent="0" />
        <mxCell id="677b7b8949515195-16" value="" style="verticalLabelPosition=bottom;shadow=0;dashed=0;align=center;html=1;verticalAlign=top;strokeWidth=1;shape=mxgraph.mockup.graphics.simpleIcon;strokeColor=#999999;rounded=0;labelBackgroundColor=none;fontFamily=Verdana;fontSize=14;fontColor=#000000;comic=1;" parent="1" vertex="1">
          <mxGeometry x="30" y="230" width="1040" height="340" as="geometry" />
        </mxCell>
        <mxCell id="677b7b8949515195-1" value="" style="whiteSpace=wrap;html=1;rounded=0;shadow=0;labelBackgroundColor=none;strokeColor=#000000;strokeWidth=1;fillColor=none;fontFamily=Verdana;fontSize=12;fontColor=#000000;align=center;comic=1;" parent="1" vertex="1">
          <mxGeometry width="1100" height="1700" as="geometry" />
        </mxCell>
        <mxCell id="677b7b8949515195-2" value="&lt;font style=&quot;font-size: 22px;&quot;&gt;LOGO + název&lt;/font&gt;" style="whiteSpace=wrap;html=1;rounded=0;shadow=0;labelBackgroundColor=none;strokeWidth=1;fontFamily=Verdana;fontSize=28;align=center;comic=1;" parent="1" vertex="1">
          <mxGeometry x="40" y="60" width="190" height="50" as="geometry" />
        </mxCell>
        <mxCell id="677b7b8949515195-3" value="Search" style="strokeWidth=1;shadow=0;dashed=0;align=center;html=1;shape=mxgraph.mockup.forms.searchBox;strokeColor=#999999;mainText=;strokeColor2=#008cff;fontColor=#666666;fontSize=17;align=left;spacingLeft=3;rounded=0;labelBackgroundColor=none;comic=1;" parent="1" vertex="1">
          <mxGeometry x="840" y="70" width="220" height="30" as="geometry" />
        </mxCell>
        <mxCell id="677b7b8949515195-9" value="" style="line;strokeWidth=1;html=1;rounded=0;shadow=0;labelBackgroundColor=none;fillColor=none;fontFamily=Verdana;fontSize=14;fontColor=#000000;align=center;comic=1;" parent="1" vertex="1">
          <mxGeometry x="20" y="120" width="1060" height="10" as="geometry" />
        </mxCell>
        <mxCell id="677b7b8949515195-10" value="" style="whiteSpace=wrap;html=1;rounded=0;shadow=0;labelBackgroundColor=none;strokeWidth=1;fillColor=none;fontFamily=Verdana;fontSize=12;align=center;comic=1;" parent="1" vertex="1">
          <mxGeometry x="30" y="160" width="1040" height="50" as="geometry" />
        </mxCell>
        <mxCell id="677b7b8949515195-11" value="Section 1" style="text;html=1;points=[];align=left;verticalAlign=top;spacingTop=-4;fontSize=14;fontFamily=Verdana" parent="1" vertex="1">
          <mxGeometry x="330" y="175" width="60" height="20" as="geometry" />
        </mxCell>
        <mxCell id="677b7b8949515195-12" value="Section 2" style="text;html=1;points=[];align=left;verticalAlign=top;spacingTop=-4;fontSize=14;fontFamily=Verdana" parent="1" vertex="1">
          <mxGeometry x="477" y="175" width="60" height="20" as="geometry" />
        </mxCell>
        <mxCell id="677b7b8949515195-13" value="Section 3" style="text;html=1;points=[];align=left;verticalAlign=top;spacingTop=-4;fontSize=14;fontFamily=Verdana" parent="1" vertex="1">
          <mxGeometry x="623" y="175" width="60" height="20" as="geometry" />
        </mxCell>
        <mxCell id="677b7b8949515195-14" value="Section 4" style="text;html=1;points=[];align=left;verticalAlign=top;spacingTop=-4;fontSize=14;fontFamily=Verdana" parent="1" vertex="1">
          <mxGeometry x="770" y="175" width="60" height="20" as="geometry" />
        </mxCell>
        <mxCell id="677b7b8949515195-15" value="&lt;span style=&quot;&quot;&gt;&lt;span style=&quot;white-space: pre;&quot;&gt;&amp;nbsp;&amp;nbsp;&amp;nbsp;&amp;nbsp;&lt;/span&gt;&lt;/span&gt;&lt;b&gt;&lt;font style=&quot;font-size: 28px;&quot;&gt;O nás&lt;/font&gt;&lt;/b&gt;&lt;br&gt;&lt;span style=&quot;&quot;&gt;&lt;span style=&quot;white-space: pre;&quot;&gt;&amp;nbsp;&amp;nbsp;&amp;nbsp;&amp;nbsp;&lt;/span&gt;&lt;/span&gt;&lt;span style=&quot;&quot;&gt;&lt;span style=&quot;white-space: pre;&quot;&gt;&amp;nbsp;&amp;nbsp;&amp;nbsp;&amp;nbsp;&lt;/span&gt;&lt;/span&gt;Sed ac dolor sit amet purus malesuada congue. Aenean fermentum risus id tortor. Pellentesque arcu. Nunc auctor. Maecenas libero. &lt;span style=&quot;white-space: pre;&quot;&gt;&#x9;&lt;/span&gt;Phasellus enim erat, vestibulum vel, aliquam a, posuere eu, velit. Suspendisse nisl." style="whiteSpace=wrap;html=1;rounded=0;shadow=0;labelBackgroundColor=none;strokeWidth=1;fillColor=none;fontFamily=Verdana;fontSize=12;align=left;verticalAlign=top;spacing=10;comic=1;" parent="1" vertex="1">
          <mxGeometry x="110" y="305" width="860" height="190" as="geometry" />
        </mxCell>
        <mxCell id="xCw9tUKv6w4MnSfwsZ5K-18" value="" style="rounded=1;whiteSpace=wrap;html=1;fillColor=#d5e8d4;strokeColor=#82b366;" vertex="1" parent="1">
          <mxGeometry x="430" y="920" width="80" height="40" as="geometry" />
        </mxCell>
        <mxCell id="xCw9tUKv6w4MnSfwsZ5K-19" value="Footer" style="rounded=0;whiteSpace=wrap;html=1;" vertex="1" parent="1">
          <mxGeometry x="30" y="1480" width="1040" height="200" as="geometry" />
        </mxCell>
        <mxCell id="xCw9tUKv6w4MnSfwsZ5K-21" value="" style="rounded=1;whiteSpace=wrap;html=1;" vertex="1" parent="1">
          <mxGeometry x="70" y="630" width="200" height="350" as="geometry" />
        </mxCell>
        <mxCell id="xCw9tUKv6w4MnSfwsZ5K-22" value="" style="endArrow=none;html=1;rounded=0;entryX=0;entryY=0.5;entryDx=0;entryDy=0;exitX=1;exitY=0.5;exitDx=0;exitDy=0;" edge="1" source="xCw9tUKv6w4MnSfwsZ5K-21" target="xCw9tUKv6w4MnSfwsZ5K-21" parent="1">
          <mxGeometry width="50" height="50" relative="1" as="geometry">
            <mxPoint x="120" y="825" as="sourcePoint" />
            <mxPoint x="170" y="775" as="targetPoint" />
          </mxGeometry>
        </mxCell>
        <mxCell id="xCw9tUKv6w4MnSfwsZ5K-23" value="" style="rounded=1;whiteSpace=wrap;html=1;fillColor=#d5e8d4;strokeColor=#82b366;" vertex="1" parent="1">
          <mxGeometry x="170" y="920" width="80" height="40" as="geometry" />
        </mxCell>
        <mxCell id="xCw9tUKv6w4MnSfwsZ5K-24" value="" style="rounded=1;whiteSpace=wrap;html=1;fillColor=#d5e8d4;strokeColor=#82b366;" vertex="1" parent="1">
          <mxGeometry x="420" y="920" width="80" height="40" as="geometry" />
        </mxCell>
        <mxCell id="xCw9tUKv6w4MnSfwsZ5K-25" value="" style="rounded=1;whiteSpace=wrap;html=1;" vertex="1" parent="1">
          <mxGeometry x="320" y="625" width="200" height="350" as="geometry" />
        </mxCell>
        <mxCell id="xCw9tUKv6w4MnSfwsZ5K-26" value="" style="endArrow=none;html=1;rounded=0;entryX=0;entryY=0.5;entryDx=0;entryDy=0;exitX=1;exitY=0.5;exitDx=0;exitDy=0;" edge="1" parent="1">
          <mxGeometry width="50" height="50" relative="1" as="geometry">
            <mxPoint x="520" y="804.41" as="sourcePoint" />
            <mxPoint x="320" y="804.41" as="targetPoint" />
          </mxGeometry>
        </mxCell>
        <mxCell id="xCw9tUKv6w4MnSfwsZ5K-27" value="" style="rounded=1;whiteSpace=wrap;html=1;" vertex="1" parent="1">
          <mxGeometry x="570" y="625" width="200" height="350" as="geometry" />
        </mxCell>
        <mxCell id="xCw9tUKv6w4MnSfwsZ5K-28" value="" style="endArrow=none;html=1;rounded=0;entryX=0;entryY=0.5;entryDx=0;entryDy=0;exitX=1;exitY=0.5;exitDx=0;exitDy=0;" edge="1" parent="1">
          <mxGeometry width="50" height="50" relative="1" as="geometry">
            <mxPoint x="770" y="804.41" as="sourcePoint" />
            <mxPoint x="570" y="804.41" as="targetPoint" />
          </mxGeometry>
        </mxCell>
        <mxCell id="xCw9tUKv6w4MnSfwsZ5K-29" value="" style="rounded=1;whiteSpace=wrap;html=1;fillColor=#d5e8d4;strokeColor=#82b366;" vertex="1" parent="1">
          <mxGeometry x="673" y="920" width="80" height="40" as="geometry" />
        </mxCell>
        <mxCell id="xCw9tUKv6w4MnSfwsZ5K-30" value="" style="rounded=1;whiteSpace=wrap;html=1;fillColor=#d5e8d4;strokeColor=#82b366;" vertex="1" parent="1">
          <mxGeometry x="920" y="920" width="80" height="40" as="geometry" />
        </mxCell>
        <mxCell id="xCw9tUKv6w4MnSfwsZ5K-31" value="" style="rounded=1;whiteSpace=wrap;html=1;" vertex="1" parent="1">
          <mxGeometry x="820" y="625" width="200" height="350" as="geometry" />
        </mxCell>
        <mxCell id="xCw9tUKv6w4MnSfwsZ5K-32" value="" style="endArrow=none;html=1;rounded=0;entryX=0;entryY=0.5;entryDx=0;entryDy=0;exitX=1;exitY=0.5;exitDx=0;exitDy=0;" edge="1" parent="1">
          <mxGeometry width="50" height="50" relative="1" as="geometry">
            <mxPoint x="1020" y="804.41" as="sourcePoint" />
            <mxPoint x="820" y="804.41" as="targetPoint" />
          </mxGeometry>
        </mxCell>
        <mxCell id="xCw9tUKv6w4MnSfwsZ5K-15" value="" style="rounded=1;whiteSpace=wrap;html=1;fillColor=#d5e8d4;strokeColor=#82b366;" vertex="1" parent="1">
          <mxGeometry x="420" y="920" width="80" height="40" as="geometry" />
        </mxCell>
        <mxCell id="xCw9tUKv6w4MnSfwsZ5K-33" value="" style="rounded=1;whiteSpace=wrap;html=1;fillColor=#d5e8d4;strokeColor=#82b366;" vertex="1" parent="1">
          <mxGeometry x="920" y="920" width="80" height="40" as="geometry" />
        </mxCell>
        <mxCell id="xCw9tUKv6w4MnSfwsZ5K-34" value="" style="rounded=0;whiteSpace=wrap;html=1;" vertex="1" parent="1">
          <mxGeometry x="30" y="1030" width="1040" height="390" as="geometry" />
        </mxCell>
      </root>
    </mxGraphModel>
  </diagram>
</mxfile>
